<svg id="Capa_1" enable-background="new 0 0 512 512" height="512" viewBox="0 0 512 512" width="512" xmlns="http://www.w3.org/2000/svg"><g><path d="m512 256c0 141.385-114.615 256-256 256s-256-114.615-256-256 114.615-256 256-256 256 114.615 256 256z" fill="#69564e"/><path d="m487.268 251.776c0 118.553-96.106 214.66-214.66 214.66s-214.66-96.106-214.66-214.66 96.106-214.66 214.66-214.66 214.66 96.107 214.66 214.66z" fill="#7c665d"/><path d="m424.92 27.116c-.126 55.53-17.02 104.455-52.285 139.72-28.474 28.474-65.856 44.971-108.428 50.334-5.364 42.572-21.86 79.954-50.334 108.428-35.265 35.265-84.19 52.158-139.72 52.285-14.995.034-27.15-12.121-27.116-27.116.126-55.53 17.02-104.455 52.285-139.72 28.474-28.474 65.856-44.97 108.428-50.334 5.364-42.572 21.86-79.954 50.334-108.428 35.265-35.265 84.19-52.158 139.72-52.285 14.995-.034 27.15 12.121 27.116 27.116z" fill="#f29500"/><path d="m420.844 72.002c-1.293 6.886-2.896 13.617-4.814 20.176 5.75 10.474 6.119 23.289.545 34.212-10.072 19.739-23.366 38.257-39.882 54.773s-35.034 29.81-54.773 39.882c-13.237 6.754-29.251 4.782-40.511-4.916-.562-.484-1.123-.969-1.684-1.455-5.089 1.003-10.263 1.834-15.517 2.496-.662 5.254-1.494 10.428-2.496 15.517.486.561.972 1.122 1.455 1.684 9.698 11.26 11.671 27.275 4.916 40.512-10.072 19.739-23.366 38.257-39.882 54.773s-35.035 29.81-54.773 39.882c-10.924 5.574-23.738 5.204-34.212-.545-6.56 1.917-13.291 3.521-20.177 4.814-18.966 3.562-35.605-13.078-32.044-32.044 1.06-5.644 2.329-11.184 3.808-16.61-10.674-10.869-20.847-21.936-30.504-33.148-9.698-11.26-11.671-27.274-4.916-40.511 10.072-19.739 23.366-38.257 39.882-54.773s35.034-29.81 54.773-39.882c13.237-6.754 29.251-4.782 40.512 4.916 12.764 10.993 25.341 22.656 37.651 34.966.658.658 1.314 1.317 1.968 1.977 4.426-.828 8.914-1.529 13.463-2.102.573-4.548 1.273-9.037 2.102-13.463-.66-.655-1.319-1.31-1.977-1.969-12.31-12.31-23.973-24.887-34.966-37.651-9.698-11.26-11.671-27.274-4.916-40.512 10.072-19.739 23.366-38.257 39.882-54.773s35.034-29.81 54.773-39.882c13.237-6.755 29.251-4.782 40.512 4.916 11.212 9.656 22.279 19.83 33.148 30.504 5.427-1.479 10.967-2.748 16.611-3.808 18.965-3.562 35.605 13.078 32.043 32.044z" fill="#ffa90b"/><path d="m416.575 126.39c-6.656 13.043-14.719 25.554-24.188 37.306 4.947 13.552 4.264 28.832-2.54 42.166-14.573 28.558-33.806 55.351-57.702 79.247s-50.688 43.13-79.246 57.702c-13.333 6.803-28.614 7.487-42.166 2.54-11.752 9.47-24.263 17.533-37.306 24.188-13.237 6.754-29.251 4.782-40.512-4.916-6.606-5.69-13.162-11.559-19.657-17.605-6.045-6.495-11.915-13.051-17.604-19.657-9.698-11.26-11.671-27.274-4.916-40.511 5.663-11.099 12.345-21.811 20.046-31.999-7.373-8.013-14.56-16.088-21.56-24.216-14.031-16.292-16.885-39.461-7.113-58.612 14.573-28.558 33.806-55.351 57.702-79.247s50.688-43.13 79.247-57.702c19.152-9.773 42.321-6.919 58.613 7.113 8.127 7 16.202 14.188 24.215 21.56 10.188-7.7 20.9-14.382 31.999-20.046 13.237-6.754 29.251-4.782 40.512 4.916 6.606 5.69 13.162 11.56 19.657 17.605 6.045 6.495 11.915 13.051 17.605 19.657 9.696 11.26 11.669 27.274 4.914 40.511z" fill="#ffc14f"/><path d="m389.849 205.859c-14.573 28.56-33.807 55.353-57.703 79.249-13.784 13.784-28.531 26.016-44.026 36.698-17.673 12.183-41.596 10.325-56.915-4.712-.355-.349-.709-.7-1.062-1.052-61.775-61.773-61.431-163.176.743-224.548 8.711-8.598 18.171-15.981 28.168-22.148 17.418-10.744 39.902-8.568 54.735 5.532 6.16 5.856 12.281 11.822 18.356 17.897 17.811 17.811 34.686 36.008 50.592 54.477 14.03 16.29 16.883 39.457 7.112 58.607z" fill="#ffcd71"/><path d="m200 400c0 5.523-4.477 10-10 10s-10-4.477-10-10 4.477-10 10-10 10 4.477 10 10z" fill="#ffcd71"/><path d="m162.5 435c0 4.142-3.358 7.5-7.5 7.5s-7.5-3.358-7.5-7.5 3.358-7.5 7.5-7.5 7.5 3.358 7.5 7.5z" fill="#ffc14f"/><path d="m215 462.5c0 4.142-3.358 7.5-7.5 7.5s-7.5-3.358-7.5-7.5 3.358-7.5 7.5-7.5 7.5 3.358 7.5 7.5z" fill="#ffa90b"/><path d="m427.692 350.096c-5.252 4.589-6.754 12.14-3.658 18.39 4.13 8.337-.039 18.403-8.855 21.378-6.608 2.23-10.885 8.631-10.417 15.59.625 9.283-7.079 16.987-16.362 16.362-6.959-.469-13.36 3.809-15.59 10.417-2.975 8.816-13.041 12.985-21.378 8.855-6.25-3.096-13.8-1.594-18.39 3.658-6.122 7.006-17.017 7.006-23.139 0-4.589-5.252-12.14-6.754-18.39-3.658-8.337 4.13-18.403-.039-21.378-8.855-2.23-6.608-8.631-10.885-15.59-10.417-9.283.625-16.987-7.079-16.362-16.362.469-6.958-3.809-13.36-10.417-15.59-8.816-2.975-12.985-13.041-8.855-21.378 3.096-6.25 1.594-13.801-3.658-18.39-7.006-6.122-7.006-17.017 0-23.139 5.252-4.589 6.754-12.14 3.658-18.39-4.13-8.337.039-18.403 8.855-21.378 6.608-2.23 10.885-8.631 10.417-15.59-.625-9.283 7.079-16.987 16.362-16.362 6.958.469 13.36-3.809 15.59-10.417 2.975-8.816 13.041-12.985 21.378-8.855 6.25 3.096 13.801 1.594 18.39-3.658 6.122-7.006 17.017-7.006 23.139 0 4.589 5.252 12.14 6.754 18.39 3.658 8.337-4.13 18.403.039 21.378 8.855 2.23 6.608 8.631 10.885 15.59 10.417 9.283-.625 16.987 7.079 16.362 16.362-.469 6.959 3.809 13.36 10.417 15.59 8.816 2.975 12.985 13.041 8.855 21.378-3.096 6.25-1.594 13.8 3.658 18.39 7.006 6.122 7.006 17.017 0 23.139z" fill="#fff36c"/><path d="m427.692 350.096c-5.252 4.589-6.754 12.14-3.658 18.39 4.13 8.337-.039 18.403-8.855 21.378-6.608 2.23-10.885 8.631-10.417 15.59.625 9.283-7.079 16.987-16.362 16.362-6.959-.469-13.36 3.809-15.59 10.417-2.975 8.816-13.041 12.985-21.378 8.855-.631-.313-1.276-.578-1.929-.798-13.891-4.671-26.811-11.941-36.807-22.657-37.938-40.672-62.781-93.718-67.814-152.421-.472-5.511 4.028-10.312 9.55-9.98.038.002.076.005.114.007 6.958.469 13.36-3.809 15.59-10.417 2.975-8.816 13.041-12.985 21.378-8.855 6.25 3.096 13.801 1.594 18.39-3.658 5.181-5.929 13.781-6.841 20.013-2.734 5.376 3.543 15.077 6.392 21.516 6.392 8.337-4.13 18.403.039 21.378 8.855 2.23 6.608 8.631 10.885 15.59 10.417 9.283-.625 16.987 7.079 16.362 16.362-.469 6.958 3.809 13.36 10.417 15.59 8.816 2.975 12.985 13.041 8.855 21.378-3.096 6.25-1.594 13.801 3.658 18.39 7.005 6.12 7.005 17.015-.001 23.137z" fill="#fff68e"/><path d="m266.474 338.526c0 5.523-4.477 10-10 10s-10-4.477-10-10 4.477-10 10-10c5.522 0 10 4.478 10 10zm120-10c-5.523 0-10 4.477-10 10s4.477 10 10 10 10-4.477 10-10c0-5.522-4.478-10-10-10zm-65-65c-5.523 0-10 4.477-10 10s4.477 10 10 10 10-4.477 10-10c0-5.522-4.478-10-10-10zm0 130c-5.523 0-10 4.477-10 10s4.477 10 10 10 10-4.477 10-10c0-5.522-4.478-10-10-10zm-53.034-16.108c-3.905 3.905-3.905 10.237 0 14.142s10.237 3.905 14.142 0 3.905-10.237 0-14.142-10.236-3.906-14.142 0zm106.066-77.782c3.905-3.905 3.905-10.237 0-14.142s-10.237-3.905-14.142 0-3.905 10.237 0 14.142 10.237 3.905 14.142 0zm-106.066-14.142c-3.905 3.905-3.905 10.237 0 14.142s10.237 3.905 14.142 0 3.905-10.237 0-14.142c-3.905-3.906-10.236-3.906-14.142 0zm91.924 91.924c-3.905 3.905-3.905 10.237 0 14.142s10.237 3.905 14.142 0 3.905-10.237 0-14.142c-3.905-3.906-10.236-3.906-14.142 0z" fill="#ffc14f"/><path d="m199.286 257.143c0 7.101-4.317 12.857-9.643 12.857-5.325 0-9.643-5.756-9.643-12.857s4.317-12.857 9.643-12.857 9.643 5.756 9.643 12.857zm7.857-67.143c-7.101 0-12.857 4.317-12.857 9.643s5.756 9.643 12.857 9.643 12.857-4.317 12.857-9.643-5.756-9.643-12.857-9.643zm52.608-32.143c-7.101 0-12.857 4.317-12.857 9.643s5.756 9.643 12.857 9.643 12.857-4.317 12.857-9.643-5.756-9.643-12.857-9.643zm-120 25.714c-7.101 0-12.857 4.317-12.857 9.643 0 5.325 5.756 9.643 12.857 9.643s12.857-4.317 12.857-9.643c0-5.325-5.756-9.643-12.857-9.643zm207.976-1.298c-3.766-3.766-10.889-2.748-15.91 2.273s-6.039 12.144-2.273 15.91 10.889 2.748 15.91-2.273 6.038-12.144 2.273-15.91zm-50.476-73.702c-5.325 0-9.643 5.756-9.643 12.857s4.317 12.857 9.643 12.857 9.643-5.756 9.643-12.857c0-7.1-4.317-12.857-9.643-12.857zm-87.608 21.429c5.326 0 9.643-5.756 9.643-12.857s-4.317-12.857-9.643-12.857c-5.325 0-9.643 5.756-9.643 12.857s4.317 12.857 9.643 12.857z" fill="#ffe7c0"/></g></svg>