<svg id="Capa_1" enable-background="new 0 0 512 512" height="512" viewBox="0 0 512 512" width="512" xmlns="http://www.w3.org/2000/svg"><g><path d="m512 256c0 141.385-114.615 256-256 256s-256-114.615-256-256 114.615-256 256-256 256 114.615 256 256z" fill="#199a8e"/><path d="m481.12 244.839c0 111.315-90.238 201.553-201.553 201.553s-201.554-90.239-201.554-201.553 90.239-201.553 201.553-201.553 201.554 90.238 201.554 201.553z" fill="#20b7a1"/><path d="m300 191.613c0 91.127-57.339 138.387-128.07 138.387s-128.07-47.26-128.07-138.387 57.338-191.613 128.07-191.613 128.07 100.486 128.07 191.613z" fill="#e3a76f"/><path d="m144.424 327.481c-57.512-10.881-100.565-56.906-100.565-135.868 0-88.835 54.491-186.564 122.759-191.424-35.424 46.798-58.888 124.954-58.888 198.292 0 56.645 13.999 99.816 36.694 129zm-9.424-125.223c-8.819 0-15.968 9.532-15.968 21.29s7.149 21.29 15.968 21.29 15.968-9.532 15.968-21.29-7.149-21.29-15.968-21.29zm58.548-24.839c0 7.839-4.766 14.194-10.645 14.194s-10.645-6.355-10.645-14.194 4.766-14.194 10.645-14.194c5.879.001 10.645 6.355 10.645 14.194zm-21.29 102.904c0 7.839-4.766 14.194-10.645 14.194s-10.645-6.355-10.645-14.194 4.766-14.194 10.645-14.194 10.645 6.355 10.645 14.194zm-29.718-142.823c0 5.389-3.277 9.758-7.319 9.758s-7.319-4.369-7.319-9.758 3.277-9.758 7.319-9.758c4.043 0 7.319 4.369 7.319 9.758zm61.654-72.742c0 5.389-3.277 9.758-7.319 9.758s-7.319-4.369-7.319-9.758 3.277-9.758 7.319-9.758 7.319 4.369 7.319 9.758z" fill="#d6995c"/><path d="m430.617 330c0 85.604-53.864 130-120.309 130s-120.308-44.396-120.308-130 53.864-180 120.309-180 120.308 94.396 120.308 180z" fill="#ffe7c0"/><path d="m284.47 457.634c-54.027-10.221-94.47-53.457-94.47-127.634 0-83.451 51.188-175.257 115.319-179.822-33.277 43.962-55.319 117.381-55.319 186.274 0 53.212 13.15 93.767 34.47 121.182z" fill="#ffe1aa"/><path d="m310.309 467.5c-35.676 0-67.773-12.465-90.378-35.099-24.488-24.518-37.431-59.928-37.431-102.401 0-43.702 13.269-89.672 36.405-126.121 25.124-39.581 57.585-61.379 91.403-61.379s66.279 21.798 91.403 61.379c23.136 36.449 36.406 82.419 36.406 126.121 0 42.473-12.943 77.883-37.431 102.401-22.604 22.634-54.701 35.099-90.377 35.099zm0-310c-28.501 0-56.464 19.326-78.739 54.418-21.334 33.608-34.07 77.752-34.07 118.082 0 74.416 44.28 122.5 112.809 122.5s112.808-48.084 112.808-122.5c0-40.33-12.736-84.474-34.07-118.082-22.274-35.092-50.237-54.418-78.738-54.418z" fill="#f2d1a5"/><path d="m374.475 350c0 38.66-28.728 70-64.167 70s-64.167-31.34-64.167-70 28.728-70 64.167-70 64.167 31.34 64.167 70z" fill="#ffc14f"/><path d="m312.991 419.939c-.89.04-1.784.061-2.683.061-35.438 0-64.167-31.34-64.167-70s28.728-70 64.167-70c.899 0 1.793.021 2.683.061-19.679 13.664-32.991 39.863-32.991 69.939s13.312 56.275 32.991 69.939z" fill="#ffa90b"/></g></svg>